<svg xmlns="http://www.w3.org/2000/svg" width="600" height="600" viewBox="0 0 600 600">
  <defs>
    <linearGradient id="bg" x1="0" y1="0" x2="1" y2="1">
      <stop offset="0" stop-color="#111827"/>
      <stop offset="1" stop-color="#374151"/>
    </linearGradient>
    <linearGradient id="accent" x1="0" y1="1" x2="1" y2="0">
      <stop offset="0" stop-color="#4f46e5"/>
      <stop offset="1" stop-color="#22c55e"/>
    </linearGradient>
  </defs>

  <rect x="0" y="0" width="600" height="600" rx="64" fill="url(#bg)"/>
  <rect x="48" y="48" width="504" height="504" rx="48" fill="none" stroke="rgba(255,255,255,0.12)" stroke-width="4"/>

  <circle cx="300" cy="320" r="160" fill="rgba(255,255,255,0.06)"/>
  <circle cx="300" cy="320" r="64" fill="rgba(255,255,255,0.10)"/>
  <circle cx="300" cy="320" r="18" fill="rgba(255,255,255,0.70)"/>

  <path d="M360 170v230c0 39-31 70-70 70s-70-31-70-70 31-70 70-70c18 0 35 7 48 18V170h22z"
        fill="url(#accent)"/>
  <rect x="360" y="170" width="28" height="96" rx="14" fill="rgba(255,255,255,0.18)"/>

  <text x="300" y="520" text-anchor="middle" font-family="ui-sans-serif, system-ui, -apple-system, Segoe UI, Roboto, Arial"
        font-size="28" fill="rgba(255,255,255,0.55)">No Cover</text>
</svg>
